name ./resultDataOpenSim/trcMotMarkerGrf/sub10/grf-14-06.mot
datacolumns 19
datarows 30
range 1.46400000 1.58000000
endheader

                time	     ground_force_vx	     ground_force_vy	     ground_force_vz	     ground_force_px	     ground_force_py	     ground_force_pz	   l_ground_force_vx	   l_ground_force_vy	   l_ground_force_vz	   l_ground_force_px	   l_ground_force_py	   l_ground_force_pz	     ground_torque_x	     ground_torque_y	     ground_torque_z	   l_ground_torque_x	   l_ground_torque_y	   l_ground_torque_z	
          1.46400000	         -2.74945041	        440.02530851	          5.71234056	          0.94958357	          0.00000000	         -0.05345024	          0.00000000	          0.00000000	          0.00000000	          0.00000000	          0.00000000	          0.00000000	          0.00000000	          1.99575709	          0.00000000	          0.00000000	          0.00000000	          0.00000000	
          1.46800000	         -1.57318368	        436.07067044	          6.17303148	          0.94965967	          0.00000000	         -0.05366852	          0.00000000	          0.00000000	          0.00000000	          0.00000000	          0.00000000	          0.00000000	          0.00000000	          2.05090942	          0.00000000	          0.00000000	          0.00000000	          0.00000000	
          1.47200000	         -0.12665495	        432.48559963	          6.22015794	          0.94970329	          0.00000000	         -0.05386983	          0.00000000	          0.00000000	          0.00000000	          0.00000000	          0.00000000	          0.00000000	          0.00000000	          2.10996100	          0.00000000	          0.00000000	          0.00000000	          0.00000000	
          1.47600000	          1.65043315	        429.31623490	          5.96748778	          0.94970051	          0.00000000	         -0.05405449	          0.00000000	          0.00000000	          0.00000000	          0.00000000	          0.00000000	          0.00000000	          0.00000000	          2.17375884	          0.00000000	          0.00000000	          0.00000000	          0.00000000	
          1.48000000	          3.73157275	        426.59804301	          5.57057603	          0.94965090	          0.00000000	         -0.05423096	          0.00000000	          0.00000000	          0.00000000	          0.00000000	          0.00000000	          0.00000000	          0.00000000	          2.24113621	          0.00000000	          0.00000000	          0.00000000	          0.00000000	
          1.48400000	          6.01321823	        424.35403389	          5.19737614	          0.94956553	          0.00000000	         -0.05440958	          0.00000000	          0.00000000	          0.00000000	          0.00000000	          0.00000000	          0.00000000	          0.00000000	          2.30957457	          0.00000000	          0.00000000	          0.00000000	          0.00000000	
          1.48800000	          8.34439459	        422.60396325	          4.99633071	          0.94945959	          0.00000000	         -0.05459686	          0.00000000	          0.00000000	          0.00000000	          0.00000000	          0.00000000	          0.00000000	          0.00000000	          2.37585164	          0.00000000	          0.00000000	          0.00000000	          0.00000000	
          1.49200000	         10.56862216	        421.36766352	          5.06685471	          0.94934889	          0.00000000	         -0.05479423	          0.00000000	          0.00000000	          0.00000000	          0.00000000	          0.00000000	          0.00000000	          0.00000000	          2.43640858	          0.00000000	          0.00000000	          0.00000000	          0.00000000	
          1.49600000	         12.56643591	        420.66967960	          5.43777505	          0.94925805	          0.00000000	         -0.05499550	          0.00000000	          0.00000000	          0.00000000	          0.00000000	          0.00000000	          0.00000000	          0.00000000	          2.48763057	          0.00000000	          0.00000000	          0.00000000	          0.00000000	
          1.50000000	         14.28809254	        420.54546919	          6.06126877	          0.94920176	          0.00000000	         -0.05519113	          0.00000000	          0.00000000	          0.00000000	          0.00000000	          0.00000000	          0.00000000	          0.00000000	          2.52639581	          0.00000000	          0.00000000	          0.00000000	          0.00000000	
          1.50400000	         15.76852472	        421.03465839	          6.82845526	          0.94917415	          0.00000000	         -0.05538107	          0.00000000	          0.00000000	          0.00000000	          0.00000000	          0.00000000	          0.00000000	          0.00000000	          2.55097037	          0.00000000	          0.00000000	          0.00000000	          0.00000000	
          1.50800000	         17.11709401	        422.16440065	          7.60126456	          0.94917342	          0.00000000	         -0.05557288	          0.00000000	          0.00000000	          0.00000000	          0.00000000	          0.00000000	          0.00000000	          0.00000000	          2.56184345	          0.00000000	          0.00000000	          0.00000000	          0.00000000	
          1.51200000	         18.48435448	        423.94205188	          8.24398079	          0.94918664	          0.00000000	         -0.05576116	          0.00000000	          0.00000000	          0.00000000	          0.00000000	          0.00000000	          0.00000000	          0.00000000	          2.56186711	          0.00000000	          0.00000000	          0.00000000	          0.00000000	
          1.51600000	         20.01825480	        426.35711449	          8.64524680	          0.94919224	          0.00000000	         -0.05593252	          0.00000000	          0.00000000	          0.00000000	          0.00000000	          0.00000000	          0.00000000	          0.00000000	          2.55537880	          0.00000000	          0.00000000	          0.00000000	          0.00000000	
          1.52000000	         21.82786077	        429.38331259	          8.73208986	          0.94917890	          0.00000000	         -0.05607961	          0.00000000	          0.00000000	          0.00000000	          0.00000000	          0.00000000	          0.00000000	          0.00000000	          2.54663665	          0.00000000	          0.00000000	          0.00000000	          0.00000000	
          1.52400000	         23.96632251	        432.98329666	          8.47816231	          0.94912770	          0.00000000	         -0.05620046	          0.00000000	          0.00000000	          0.00000000	          0.00000000	          0.00000000	          0.00000000	          0.00000000	          2.53837492	          0.00000000	          0.00000000	          0.00000000	          0.00000000	
          1.52800000	         26.42880205	        437.11965905	          7.90722600	          0.94902697	          0.00000000	         -0.05629718	          0.00000000	          0.00000000	          0.00000000	          0.00000000	          0.00000000	          0.00000000	          0.00000000	          2.53122908	          0.00000000	          0.00000000	          0.00000000	          0.00000000	
          1.53200000	         29.15817058	        441.76620509	          7.09095725	          0.94887372	          0.00000000	         -0.05637671	          0.00000000	          0.00000000	          0.00000000	          0.00000000	          0.00000000	          0.00000000	          0.00000000	          2.52421617	          0.00000000	          0.00000000	          0.00000000	          0.00000000	
          1.53600000	         32.05878768	        446.90937388	          6.13842938	          0.94868248	          0.00000000	         -0.05644895	          0.00000000	          0.00000000	          0.00000000	          0.00000000	          0.00000000	          0.00000000	          0.00000000	          2.51580971	          0.00000000	          0.00000000	          0.00000000	          0.00000000	
          1.54000000	         35.02213772	        452.54461265	          5.17691992	          0.94848682	          0.00000000	         -0.05652339	          0.00000000	          0.00000000	          0.00000000	          0.00000000	          0.00000000	          0.00000000	          0.00000000	          2.50489649	          0.00000000	          0.00000000	          0.00000000	          0.00000000	
          1.54400000	         37.95826462	        458.67452990	          4.32760354	          0.94831041	          0.00000000	         -0.05660762	          0.00000000	          0.00000000	          0.00000000	          0.00000000	          0.00000000	          0.00000000	          0.00000000	          2.49118744	          0.00000000	          0.00000000	          0.00000000	          0.00000000	
          1.54800000	         40.81748923	        465.30246341	          3.68262342	          0.94815651	          0.00000000	         -0.05670577	          0.00000000	          0.00000000	          0.00000000	          0.00000000	          0.00000000	          0.00000000	          0.00000000	          2.47518343	          0.00000000	          0.00000000	          0.00000000	          0.00000000	
          1.55200000	         43.59644344	        472.42444887	          3.29092626	          0.94802077	          0.00000000	         -0.05681870	          0.00000000	          0.00000000	          0.00000000	          0.00000000	          0.00000000	          0.00000000	          0.00000000	          2.45809952	          0.00000000	          0.00000000	          0.00000000	          0.00000000	
          1.55600000	         46.33179739	        480.02998616	          3.15652636	          0.94789668	          0.00000000	         -0.05694782	          0.00000000	          0.00000000	          0.00000000	          0.00000000	          0.00000000	          0.00000000	          0.00000000	          2.44200193	          0.00000000	          0.00000000	          0.00000000	          0.00000000	
          1.56000000	         49.08473123	        488.10614322	          3.24655717	          0.94777833	          0.00000000	         -0.05709682	          0.00000000	          0.00000000	          0.00000000	          0.00000000	          0.00000000	          0.00000000	          0.00000000	          2.43001492	          0.00000000	          0.00000000	          0.00000000	          0.00000000	
          1.56400000	         51.91926830	        496.63189324	          3.50342958	          0.94766770	          0.00000000	         -0.05727230	          0.00000000	          0.00000000	          0.00000000	          0.00000000	          0.00000000	          0.00000000	          0.00000000	          2.42620367	          0.00000000	          0.00000000	          0.00000000	          0.00000000	
          1.56800000	         54.87959108	        505.56417242	          3.85628769	          0.94757378	          0.00000000	         -0.05748432	          0.00000000	          0.00000000	          0.00000000	          0.00000000	          0.00000000	          0.00000000	          0.00000000	          2.43486603	          0.00000000	          0.00000000	          0.00000000	          0.00000000	
          1.57200000	         57.97529169	        514.82992111	          4.23155560	          0.94750446	          0.00000000	         -0.05774178	          0.00000000	          0.00000000	          0.00000000	          0.00000000	          0.00000000	          0.00000000	          0.00000000	          2.45937972	          0.00000000	          0.00000000	          0.00000000	          0.00000000	
          1.57600000	         61.18121949	        524.33556058	          4.56647499	          0.94746264	          0.00000000	         -0.05804930	          0.00000000	          0.00000000	          0.00000000	          0.00000000	          0.00000000	          0.00000000	          0.00000000	          2.50112692	          0.00000000	          0.00000000	          0.00000000	          0.00000000	
          1.58000000	         64.45071089	        533.99601595	          4.82490166	          0.94744765	          0.00000000	         -0.05840749	          0.00000000	          0.00000000	          0.00000000	          0.00000000	          0.00000000	          0.00000000	          0.00000000	          2.55905927	          0.00000000	          0.00000000	          0.00000000	          0.00000000	
